<svg id="Layer_1" xmlns="http://www.w3.org/2000/svg" xmlns:xlink="http://www.w3.org/1999/xlink" viewBox="221.3 257 100 100" enable-background="new 221.3 257 100 100"><style>.st0{fill:#eee}.st1{filter:url(#Adobe_OpacityMaskFilter)}.st2,.st3{clip-path:url(#SVGID_2_);fill:#fff}.st3{mask:url(#mask-2_5_);stroke:#fff;stroke-width:3}</style><title>Oval 14 + User Icon</title><path class="st0" d="M316.3 357h-90c-2.8 0-5-2.2-5-5v-90c0-2.8 2.2-5 5-5h90c2.8 0 5 2.2 5 5v90c0 2.8-2.2 5-5 5z"/><defs><path id="SVGID_1_" d="M221.4 257h99.8v100h-99.8z"/></defs><clipPath id="SVGID_2_"><use xlink:href="#SVGID_1_" overflow="visible"/></clipPath><defs><filter id="Adobe_OpacityMaskFilter" filterUnits="userSpaceOnUse" x="232.4" y="284.8" width="77.5" height="92.9"><feColorMatrix values="1 0 0 0 0 0 1 0 0 0 0 0 1 0 0 0 0 0 1 0"/></filter></defs><mask maskUnits="userSpaceOnUse" x="232.4" y="284.8" width="77.5" height="92.9" id="mask-2_5_"><g class="st1"><circle id="path-1_7_" class="st2" cx="270.9" cy="318.1" r="54.2"/></g></mask><path id="Path-Copy-3_4_" class="st3" d="M248.8 309.4c0 9.1 4.3 17.5 11 22 1.4 1.1 3.6 1.6 3.6 4.3 0 3.2-2.3 3.8-3.3 4-17.4 2.6-26.2 11.3-26.2 25.7 0 4.5.8 7.4 2.5 8.9 3 2.6 66.4 2.6 69.4 0 1.7-1.5 2.5-4.4 2.5-8.9 0-14.4-8.8-23-26.2-25.7-1-.2-3.4-.7-3.4-4s2.7-4 3.2-4.2c7-3 10.5-13.1 10.5-22.1 0-13.4-9.2-23.1-21.8-23.1-12.6 0-21.8 9.7-21.8 23.1z"/></svg>